<!DOCTYPE svg PUBLIC "-//W3C//DTD SVG 1.1//EN" "http://www.w3.org/Graphics/SVG/1.1/DTD/svg11.dtd">
<!-- Uploaded to: SVG Repo, www.svgrepo.com, Transformed by: SVG Repo Mixer Tools -->
<svg width="800px" height="800px" viewBox="-2.4 -2.4 28.80 28.80" xmlns="http://www.w3.org/2000/svg" fill="#000000">
<g id="SVGRepo_bgCarrier" stroke-width="0">
<path transform="translate(-2.4, -2.4), scale(1.7999999999999998)" fill="#7ed0ec" d="M9.166.33a2.25 2.25 0 00-2.332 0l-5.25 3.182A2.25 2.25 0 00.5 5.436v5.128a2.25 2.25 0 001.084 1.924l5.25 3.182a2.25 2.25 0 002.332 0l5.25-3.182a2.25 2.25 0 001.084-1.924V5.436a2.25 2.25 0 00-1.084-1.924L9.166.33z" strokewidth="0"/>
</g>
<g id="SVGRepo_tracerCarrier" stroke-linecap="round" stroke-linejoin="round"/>
<g id="SVGRepo_iconCarrier"> <title/> <g id="Complete"> <g id="align-right"> <g> <polygon fill="#ffffff" points="19.9 18 11.1 18 11.1 18 19.9 18 19.9 18" stroke="#1d11c5" stroke-linecap="round" stroke-linejoin="round" stroke-width="2"/> <polygon fill="#ffffff" points="20 14 4 14 4 14 20 14 20 14" stroke="#1d11c5" stroke-linecap="round" stroke-linejoin="round" stroke-width="2"/> <polygon fill="#ffffff" points="19.9 10 11.1 10 11.1 10 19.9 10 19.9 10" stroke="#1d11c5" stroke-linecap="round" stroke-linejoin="round" stroke-width="2"/> <polygon fill="#ffffff" points="20 6 4 6 4 6 20 6 20 6" stroke="#1d11c5" stroke-linecap="round" stroke-linejoin="round" stroke-width="2"/> </g> </g> </g> </g>
</svg>